<?xml version="1.0" encoding="UTF-8"?>
<svg id="artwork" xmlns="http://www.w3.org/2000/svg" viewBox="0 0 176.04 23.98">
  <path d="m7.14,7.37v10.91H0V0h7.14l18.84,11.11V0h7.14v18.27h-7.14L7.14,7.37Z"/>
  <path d="m62.43,13.25c-.54,3.34-4.25,5.45-12.39,5.45-8.62,0-13.93-1.83-13.93-7.39s5.08-7.45,13.93-7.45,12.56,2.08,12.45,7.94h-19.41c.26,1.48,1.94,2.77,6.68,2.77,3.28,0,5.51-.46,5.94-1.31h6.74Zm-19.16-3.28h12.56c-.29-.97-1.97-1.97-6.08-1.97s-6.11,1.08-6.48,1.97Z"/>
  <path d="m78.73,18.27h-6.45l-9.51-13.99h7.54l5.28,8.76,5.54-8.76h7.57l-9.96,13.99Z"/>
  <path d="m109.19,18.27v-4.83c-1.06,2.14-4.37,5.25-9.71,5.25-5.02,0-9.36-1.8-9.36-7.79v-6.62h6.85v5.91c0,3.14,1.54,3.94,5.14,3.94,3.11,0,5.77-1.51,7.08-2.8v-7.05h6.85v13.99h-6.85Z"/>
  <path d="m118.32,11.28c0-4.68,4.48-7.39,10.65-7.39,5.48,0,9.31,1.91,10.62,4.94l.34-4.54h6.45v19.7h-6.85v-10.08c-1.37,2.94-5.17,4.8-10.56,4.8-6.17,0-10.65-2.51-10.65-7.42Zm21.21,0c0-2.4-3.65-3.05-7.99-3.05-3.88,0-6.11,1.03-6.11,3.05s2.23,3.05,6.11,3.05c4.34,0,7.99-.63,7.99-3.05Z"/>
  <path d="m175.98,13.25c-.54,3.34-4.25,5.45-12.39,5.45-8.62,0-13.93-1.83-13.93-7.39s5.08-7.45,13.93-7.45,12.56,2.08,12.45,7.94h-19.41c.26,1.48,1.94,2.77,6.68,2.77,3.28,0,5.51-.46,5.94-1.31h6.74Zm-19.16-3.28h12.56c-.29-.97-1.97-1.97-6.08-1.97s-6.11,1.08-6.48,1.97Z"/>
</svg>