<?xml version="1.0" encoding="UTF-8"?>
<svg id="artwork" xmlns="http://www.w3.org/2000/svg" viewBox="0 0 179.03 57">
  <defs>
    <style>
      .cls-1 {
        fill: #fff;
      }
    </style>
  </defs>
  <rect class="cls-1" width="57" height="57" rx="10.93" ry="10.93"/>
  <path d="m32.64,46.54c.64-.38,1.2-.53,1.22-.54,1.47-.67,2.58-1.21,2.67-1.25.92-.45,4.4-2.76,6.71-7.18,2.22-4.29,2.56-9.33.94-13.88-.39-1.08-.89-2.11-1.5-3.08-2.91-4.79-7.88-7.61-13.41-7.61-.72.02-1.45.06-2.18.19-.02.02-.06.02-.09.02v.04c.24-.02.47-.04.72-.06,2.09-.19,4.01-.02,6,.67,3.01.99,5.66,2.89,7.56,5.45.64.84,1.2,1.75,1.65,2.69,1.5,3.21,1.99,6.55,1.35,10.04-.41,2.39-1.41,4.63-2.91,6.53-.15.19-.32.36-.52.52-.02-.09.02-.13.04-.17.46-.71,2.96-4.68,2.98-9.13,0-2.35-.66-4.64-.66-4.64-.34-1.16-.72-2-.8-2.18-1.02-2.21-2.35-3.59-3.01-4.25-.4-.41-1.01-1.02-1.95-1.68-.2-.14-1.08-.74-2.35-1.31-.99-.44-1.79-.65-2.1-.74-.92-.24-1.66-.33-1.97-.36-.33-.04-1.62-.16-3.31.09-1.94.28-3.37.89-3.97,1.17-1.95.9-3.21,2.03-3.68,2.46-1.27,1.2-2,2.34-2.2,2.68-1.8,2.94-1.92,5.96-1.86,7.42.12,3.08,1.27,5.25,1.53,5.74.33.59,1.55,2.72,3.94,4.34.45.3,1.12.74,2.08,1.16,1.61.71,2.31.62,3.86,1.43.35.19.82.46,1.24.97.12.14.45.57.66,1.21.06.19.16.51.19.93.02.24.04.74-.13,1.35-.21.77-.59,1.27-.69,1.39-.42.52-.87.79-1.09.93-.8.47-1.55.56-1.92.6-.8.09-1.42-.04-2.65-.3-.38-.08-.89-.19-1.56-.41-.19-.06-.8-.27-1.77-.74-.34-.16-1.3-.64-2.58-1.47-.76-.49-1.45-.94-2.3-1.65,0,0-1.64-1.39-3.1-3.33-.09-.13-.19-.25-.19-.25-.17-.26-.72-1.08-1.35-2.24-.64-1.25-2.01-3.96-2.35-7.84-.15-1.55-.24-4.54.85-8.06.36-1.17,1.07-3.02,2.37-5.07.79-1.23,2.43-3.47,5.19-5.45,1.65-1.19,3.14-1.9,4.12-2.28.98-.41,2.52-.94,4.49-1.27.83-.13,2.35-.32,4.23-.24,1.11.06,1.99.19,2.54.28,1.15.21,2.12.47,2.82.71.71.24,1.62.58,2.65,1.1.69.34,1.62.86,2.69,1.62.69.49,1.8,1.34,2.97,2.58.62.64,1.11,1.25,1.43,1.68.47.6.81,1.12,1.02,1.49.28.43.67,1.1,1.07,1.92.69,1.38,1.07,2.58,1.3,3.34.26.88.6,2.28.74,4.03.11,1.21.19,3.54-.45,6.35-.28,1.21-.6,2.15-.79,2.65-1.41,3.86-3.61,6.23-4.72,7.44,0,0-1.75,1.72-3.16,2.6-.45.28-.92.49-1.41.69-.6.26-1.2.49-1.8.75-.24.09-.47.17-.72.26,5.62-2.43,9.5-6.5,11.49-12.35,1.71-5.05.83-9.31.64-10.19-.32-1.53-1.24-4.92-3.89-8.1-4.38-5.26-10.53-6.42-10.49-6.48.02-.06,5.6.99,9.95,5.84,2.01,2.24,2.99,4.46,3.38,5.37.34.86,1.39,3.58,1.37,7.28-.02,2.6-.58,5.2-1.69,7.76-1.92,4.46-5.08,7.76-9.4,9.91-1.47.75-3.08,1.27-4.7,1.53l-.02-.06c.3-.09.6-.17.89-.26.98-.3,1.97-.67,2.91-1.1.74-.34,1.47-.73,2.18-1.19,1.88-1.19,3.56-2.71,4.93-4.48,1.71-2.18,2.93-4.7,3.56-7.39.58-2.37.71-4.85.34-7.26-.19-1.4-.56-2.76-1.04-4.07-.39-1.02-.83-1.98-1.39-2.93-1.82-3.11-4.49-5.6-7.67-7.2-2.8-1.45-5.72-2.03-8.87-1.85-1.8.09-3.56.43-5.27,1.06-1.09.41-2.13.92-3.14,1.51-.77.47-1.5.99-2.2,1.57-.04.02-.06.06-.09.11.36-.28.72-.56,1.11-.84.83-.6,1.71-1.12,2.65-1.55,6.62-3.15,14.27-2.07,19.72,2.89,1.13,1.02,2.13,2.18,2.99,3.45.49.73.94,1.51,1.32,2.3,3.93,8.25,1.47,18.19-5.85,23.6-.89.69-1.84,1.27-2.84,1.77-1.3.64-2.67,1.12-4.08,1.45-.11.04-.24.04-.36.02.36-.11.71-.19,1.07-.3.85-.26,1.67-.58,2.48-.94.74-.34,1.47-.73,2.15-1.17,1.86-1.19,3.49-2.69,4.83-4.44,1.32-1.75,2.35-3.71,3.01-5.8,1.13-3.62,1.11-7.5-.02-11.12-.39-1.21-.87-2.37-1.52-3.47-1.84-3.21-4.62-5.73-7.96-7.26-.77-.34-1.58-.62-2.41-.84l.87.3c3.56,1.25,6.62,3.62,8.74,6.79.45.64.85,1.36,1.2,2.07,1.58,3.34,2.18,6.88,1.65,10.54-.32,2.18-.96,4.16-1.92,5.99-.36.69-.74,1.32-1.13,1.87-1.35,1.94-2.73,3.19-3.29,3.64-2.91,2.43-6.58,3.41-6.58,3.41-.36.11-.74.23-.77.16-.03-.07.4-.33.49-.38h.03Z"/>
  <g>
    <path d="m82.69,16.5l15.67,14.16v-14.16h7.59v22.52h-7.59l-16.66-14.92v14.92h-7.59v-22.52h8.58Z"/>
    <path d="m142.75,26.51v.93c0,.66-.04,1.3-.12,1.92-.08.62-.27,1.33-.56,2.12-.29.79-.66,1.53-1.12,2.2-.37.55-.88,1.1-1.51,1.64l2.01,2.01-4.54,4.54-3.62-3.62c-.42.09-.85.18-1.31.26-1.65.29-3.48.43-5.48.43h-1.34c-2.01,0-3.84-.14-5.5-.43s-3.04-.67-4.13-1.13c-1.1-.46-2.07-1.03-2.91-1.7s-1.49-1.34-1.96-2.01c-.47-.67-.84-1.4-1.12-2.2-.28-.79-.46-1.5-.54-2.12-.08-.62-.12-1.26-.12-1.92v-.93c0-.68.04-1.33.12-1.93.08-.61.26-1.31.54-2.1.28-.79.65-1.52,1.12-2.18.47-.66,1.11-1.32,1.94-1.98.83-.66,1.8-1.22,2.91-1.67s2.49-.82,4.15-1.1c1.66-.28,3.49-.42,5.5-.42h1.34c2.01,0,3.83.14,5.47.42,1.64.28,3.01.64,4.12,1.1,1.11.45,2.08,1.01,2.91,1.67.83.66,1.48,1.32,1.94,1.98.47.66.84,1.38,1.13,2.17.29.78.48,1.48.56,2.1.08.62.12,1.27.12,1.95Zm-8.46,3.66c.2-.3.37-.61.49-.91.26-.66.39-1.36.39-2.1v-.43c0-.58-.07-1.12-.22-1.64-.15-.52-.42-1.05-.84-1.61-.41-.56-.95-1.03-1.62-1.42-.66-.39-1.56-.72-2.7-.97-1.14-.26-2.46-.39-3.98-.39-6.24,0-9.35,2.01-9.35,6.03v.37c0,.74.13,1.44.39,2.1s.7,1.32,1.32,1.98c.62.66,1.58,1.19,2.89,1.58,1.3.39,2.89.59,4.75.59.88,0,1.69-.05,2.44-.13l-1.75-1.75,4.54-4.54,3.25,3.25Z"/>
    <path d="m155.78,38.96c-1.63-.28-3-.65-4.12-1.11s-2.1-1.01-2.96-1.67c-.86-.66-1.53-1.32-2.02-1.99-.49-.67-.89-1.38-1.21-2.15-.32-.77-.53-1.47-.63-2.09-.1-.63-.15-1.25-.15-1.88v-.88c0-.97.1-1.89.3-2.76.2-.87.65-1.84,1.34-2.91.69-1.07,1.6-1.99,2.73-2.76,1.12-.77,2.73-1.42,4.81-1.94s4.51-.79,7.29-.79h1.36c2.71,0,5.1.23,7.18.68,2.07.46,3.68,1.01,4.81,1.67,1.14.66,2.06,1.42,2.78,2.28.72.86,1.18,1.63,1.39,2.31.21.68.31,1.33.31,1.96v.33h-8.17c-.07-.24-.15-.46-.25-.65-.1-.19-.35-.5-.76-.93-.41-.42-.9-.78-1.49-1.06s-1.44-.54-2.58-.77c-1.14-.23-2.44-.35-3.92-.35-1.76,0-3.27.17-4.51.5-1.25.33-2.18.79-2.81,1.38-.63.59-1.08,1.2-1.34,1.85-.26.65-.4,1.36-.4,2.12v.36c0,.73.15,1.43.45,2.11s.77,1.33,1.41,1.97,1.59,1.15,2.84,1.53c1.26.38,2.73.58,4.43.58,5.05,0,8.03-1.3,8.93-3.91.02-.04.03-.07.03-.09h8.17v.33c0,.67-.12,1.36-.35,2.06-.23.71-.71,1.5-1.44,2.38s-1.67,1.65-2.81,2.32c-1.15.67-2.75,1.23-4.81,1.7-2.06.46-4.43.7-7.09.7h-1.36c-1.96,0-3.76-.14-5.39-.42Z"/>
  </g>
</svg>