<?xml version="1.0" encoding="UTF-8"?>
<svg id="artwork" xmlns="http://www.w3.org/2000/svg" viewBox="-10 0 161.84 20.68">
  <defs>
    <style>
      .cls-1 {
        fill: #fff;
      }
    </style>
  </defs>
  <path class="cls-1" d="m6.16,6.35v9.41H0V0h6.16l16.25,9.58V0h6.16v15.76h-6.16L6.16,6.35Z"/>
  <path class="cls-1" d="m53.85,11.43c-.47,2.88-3.67,4.7-10.69,4.7-7.44,0-12.02-1.58-12.02-6.38s4.38-6.43,12.02-6.43,10.83,1.8,10.74,6.85h-16.75c.22,1.28,1.67,2.39,5.76,2.39,2.83,0,4.75-.39,5.12-1.13h5.81Zm-16.52-2.83h10.83c-.25-.84-1.7-1.7-5.25-1.7s-5.27.94-5.59,1.7Z"/>
  <path class="cls-1" d="m67.91,15.76h-5.57l-8.2-12.07h6.5l4.56,7.56,4.78-7.56h6.53l-8.59,12.07Z"/>
  <path class="cls-1" d="m94.18,15.76v-4.16c-.91,1.85-3.77,4.53-8.37,4.53-4.33,0-8.08-1.55-8.08-6.72V3.69h5.91v5.1c0,2.71,1.33,3.4,4.43,3.4,2.68,0,4.97-1.3,6.11-2.41V3.69h5.91v12.07h-5.91Z"/>
  <path class="cls-1" d="m102.05,9.73c0-4.04,3.87-6.38,9.19-6.38,4.73,0,8.03,1.65,9.16,4.26l.3-3.92h5.57v16.99h-5.91v-8.69c-1.18,2.54-4.46,4.14-9.11,4.14-5.32,0-9.19-2.17-9.19-6.4Zm18.3,0c0-2.07-3.15-2.63-6.89-2.63-3.35,0-5.27.89-5.27,2.63s1.92,2.63,5.27,2.63c3.74,0,6.89-.54,6.89-2.63Z"/>
  <path class="cls-1" d="m151.79,11.43c-.47,2.88-3.67,4.7-10.69,4.7-7.44,0-12.02-1.58-12.02-6.38s4.38-6.43,12.02-6.43,10.83,1.8,10.74,6.85h-16.75c.22,1.28,1.67,2.39,5.76,2.39,2.83,0,4.75-.39,5.12-1.13h5.81Zm-16.52-2.83h10.83c-.25-.84-1.7-1.7-5.25-1.7s-5.27.94-5.59,1.7Z"/>
</svg>