<?xml version="1.0" encoding="UTF-8"?>
<svg id="artwork" xmlns="http://www.w3.org/2000/svg" viewBox="0 0 179.03 57">
  <defs>
    <style>
      .cls-1 {
        fill: #fff;
      }

      .cls-2 {
        fill: #1d1d1b;
      }
    </style>
  </defs>
  <rect class="cls-2" width="57" height="57" rx="10.93" ry="10.93"/>
  <g>
    <path d="m82.69,16.5l15.67,14.16v-14.16h7.59v22.52h-7.59l-16.66-14.92v14.92h-7.59v-22.52h8.58Z"/>
    <path d="m142.75,26.51v.93c0,.66-.04,1.3-.12,1.92-.08.62-.27,1.33-.56,2.12-.29.79-.66,1.53-1.12,2.2-.37.55-.88,1.1-1.51,1.64l2.01,2.01-4.54,4.54-3.62-3.62c-.42.09-.85.18-1.31.26-1.65.29-3.48.43-5.48.43h-1.34c-2.01,0-3.84-.14-5.5-.43s-3.04-.67-4.13-1.13c-1.1-.46-2.07-1.03-2.91-1.7s-1.49-1.34-1.96-2.01c-.47-.67-.84-1.4-1.12-2.2-.28-.79-.46-1.5-.54-2.12-.08-.62-.12-1.26-.12-1.92v-.93c0-.68.04-1.33.12-1.93.08-.61.26-1.31.54-2.1.28-.79.65-1.52,1.12-2.18.47-.66,1.11-1.32,1.94-1.98.83-.66,1.8-1.22,2.91-1.67s2.49-.82,4.15-1.1c1.66-.28,3.49-.42,5.5-.42h1.34c2.01,0,3.83.14,5.47.42,1.64.28,3.01.64,4.12,1.1,1.11.45,2.08,1.01,2.91,1.67.83.66,1.48,1.32,1.94,1.98.47.66.84,1.38,1.13,2.17.29.78.48,1.48.56,2.1.08.62.12,1.27.12,1.95Zm-8.46,3.66c.2-.3.37-.61.49-.91.26-.66.39-1.36.39-2.1v-.43c0-.58-.07-1.12-.22-1.64-.15-.52-.42-1.05-.84-1.61-.41-.56-.95-1.03-1.62-1.42-.66-.39-1.56-.72-2.7-.97-1.14-.26-2.46-.39-3.98-.39-6.24,0-9.35,2.01-9.35,6.03v.37c0,.74.13,1.44.39,2.1s.7,1.32,1.32,1.98c.62.66,1.58,1.19,2.89,1.58,1.3.39,2.89.59,4.75.59.88,0,1.69-.05,2.44-.13l-1.75-1.75,4.54-4.54,3.25,3.25Z"/>
    <path d="m155.78,38.96c-1.63-.28-3-.65-4.12-1.11s-2.1-1.01-2.96-1.67c-.86-.66-1.53-1.32-2.02-1.99-.49-.67-.89-1.38-1.21-2.15-.32-.77-.53-1.47-.63-2.09-.1-.63-.15-1.25-.15-1.88v-.88c0-.97.1-1.89.3-2.76.2-.87.65-1.84,1.34-2.91.69-1.07,1.6-1.99,2.73-2.76,1.12-.77,2.73-1.42,4.81-1.94s4.51-.79,7.29-.79h1.36c2.71,0,5.1.23,7.18.68,2.07.46,3.68,1.01,4.81,1.67,1.14.66,2.06,1.42,2.78,2.28.72.86,1.18,1.63,1.39,2.31.21.68.31,1.33.31,1.96v.33h-8.17c-.07-.24-.15-.46-.25-.65-.1-.19-.35-.5-.76-.93-.41-.42-.9-.78-1.49-1.06s-1.44-.54-2.58-.77c-1.14-.23-2.44-.35-3.92-.35-1.76,0-3.27.17-4.51.5-1.25.33-2.18.79-2.81,1.38-.63.59-1.08,1.2-1.34,1.85-.26.65-.4,1.36-.4,2.12v.36c0,.73.15,1.43.45,2.11s.77,1.33,1.41,1.97,1.59,1.15,2.84,1.53c1.26.38,2.73.58,4.43.58,5.05,0,8.03-1.3,8.93-3.91.02-.04.03-.07.03-.09h8.17v.33c0,.67-.12,1.36-.35,2.06-.23.71-.71,1.5-1.44,2.38s-1.67,1.65-2.81,2.32c-1.15.67-2.75,1.23-4.81,1.7-2.06.46-4.43.7-7.09.7h-1.36c-1.96,0-3.76-.14-5.39-.42Z"/>
  </g>
  <path class="cls-1" d="m32.96,47.03c.65-.38,1.21-.54,1.23-.54,1.49-.67,2.62-1.22,2.7-1.27.93-.46,4.46-2.8,6.79-7.27,2.25-4.34,2.59-9.45.95-14.05-.39-1.09-.91-2.14-1.51-3.12-2.94-4.85-7.98-7.7-13.58-7.7-.73.02-1.47.07-2.2.2-.02.02-.07.02-.09.02v.04c.24-.02.48-.04.73-.07,2.12-.2,4.07-.02,6.08.67,3.05,1.01,5.73,2.93,7.66,5.52.65.85,1.21,1.77,1.67,2.73,1.51,3.25,2.01,6.63,1.36,10.17-.41,2.42-1.43,4.69-2.94,6.61-.15.2-.33.37-.52.52-.02-.09.02-.13.04-.17.46-.72,2.99-4.74,3.01-9.25,0-2.38-.67-4.7-.67-4.7-.34-1.17-.72-2.02-.81-2.2-1.04-2.24-2.38-3.63-3.04-4.31-.41-.41-1.02-1.04-1.97-1.7-.2-.14-1.09-.75-2.38-1.33-1-.44-1.81-.66-2.12-.75-.93-.25-1.68-.33-1.99-.36-.33-.04-1.64-.16-3.35.09-1.96.28-3.41.9-4.02,1.19-1.97.91-3.25,2.05-3.73,2.49-1.29,1.21-2.03,2.37-2.23,2.71-1.83,2.98-1.94,6.04-1.88,7.52.12,3.12,1.28,5.31,1.55,5.81.33.6,1.57,2.75,3.99,4.39.46.3,1.13.75,2.11,1.17,1.63.72,2.34.62,3.91,1.45.36.19.83.46,1.25.98.12.14.46.57.67,1.22.07.19.16.51.19.94.02.25.04.75-.13,1.37-.21.78-.59,1.28-.7,1.41-.42.53-.88.8-1.1.94-.81.48-1.57.57-1.94.61-.81.09-1.44-.04-2.69-.3-.38-.08-.91-.19-1.58-.41-.19-.06-.81-.28-1.79-.75-.34-.17-1.31-.65-2.61-1.49-.77-.5-1.46-.95-2.33-1.67,0,0-1.66-1.41-3.14-3.38-.09-.13-.19-.25-.19-.25-.17-.26-.73-1.09-1.36-2.27-.65-1.27-2.04-4.02-2.38-7.94-.15-1.57-.24-4.6.86-8.16.37-1.18,1.08-3.06,2.4-5.13.8-1.25,2.46-3.52,5.25-5.52,1.67-1.2,3.18-1.92,4.17-2.31.99-.41,2.55-.96,4.54-1.29.84-.13,2.38-.33,4.28-.24,1.12.07,2.01.2,2.57.28,1.17.22,2.15.48,2.86.72.72.24,1.65.59,2.68,1.12.7.35,1.65.87,2.73,1.64.7.5,1.82,1.36,3.01,2.62.63.65,1.12,1.27,1.45,1.7.48.61.82,1.14,1.04,1.51.28.43.67,1.12,1.08,1.94.7,1.4,1.08,2.62,1.32,3.38.26.89.61,2.31.75,4.08.11,1.22.2,3.58-.46,6.44-.28,1.22-.61,2.18-.8,2.68-1.43,3.91-3.65,6.31-4.78,7.53,0,0-1.78,1.75-3.2,2.64-.46.28-.93.5-1.43.7-.61.26-1.21.5-1.82.76-.24.09-.48.17-.73.26,5.69-2.46,9.62-6.59,11.64-12.51,1.73-5.11.84-9.43.65-10.32-.33-1.55-1.25-4.98-3.94-8.2-4.44-5.33-10.67-6.5-10.62-6.57.02-.07,5.67,1.01,10.08,5.91,2.04,2.27,3.03,4.52,3.42,5.44.35.87,1.41,3.62,1.38,7.38-.02,2.64-.59,5.26-1.71,7.86-1.95,4.52-5.15,7.86-9.52,10.04-1.49.76-3.12,1.29-4.76,1.55l-.02-.07c.3-.09.61-.17.91-.26.99-.3,1.99-.67,2.94-1.12.75-.35,1.49-.74,2.2-1.2,1.91-1.2,3.61-2.75,4.99-4.54,1.73-2.2,2.96-4.76,3.61-7.49.59-2.4.72-4.91.35-7.36-.2-1.42-.57-2.8-1.06-4.12-.39-1.03-.84-2.01-1.41-2.97-1.84-3.15-4.54-5.67-7.77-7.29-2.83-1.46-5.8-2.05-8.98-1.88-1.82.09-3.61.43-5.34,1.07-1.1.41-2.16.93-3.18,1.53-.78.48-1.51,1.01-2.22,1.59-.04.02-.07.07-.09.11.37-.28.73-.57,1.12-.85.84-.61,1.73-1.14,2.68-1.57,6.7-3.19,14.45-2.09,19.97,2.93,1.15,1.03,2.16,2.2,3.03,3.49.5.74.95,1.53,1.34,2.33,3.98,8.36,1.49,18.42-5.93,23.9-.91.7-1.86,1.29-2.88,1.79-1.32.65-2.7,1.14-4.13,1.46-.11.04-.24.04-.37.02.37-.11.72-.2,1.08-.3.86-.26,1.69-.59,2.51-.96.75-.35,1.49-.74,2.18-1.18,1.88-1.2,3.53-2.73,4.89-4.49,1.34-1.77,2.38-3.75,3.05-5.87,1.15-3.67,1.12-7.6-.02-11.26-.39-1.22-.88-2.4-1.54-3.52-1.86-3.25-4.67-5.81-8.07-7.36-.78-.35-1.6-.63-2.44-.85l.88.3c3.61,1.27,6.7,3.67,8.85,6.88.46.65.86,1.38,1.21,2.09,1.6,3.38,2.2,6.96,1.67,10.68-.33,2.2-.97,4.21-1.95,6.07-.37.7-.75,1.33-1.15,1.9-1.36,1.96-2.77,3.23-3.33,3.69-2.94,2.46-6.66,3.45-6.66,3.45-.36.12-.75.23-.78.17-.03-.07.41-.33.5-.38h.03Z"/>
</svg>