<svg id="artwork" xmlns="http://www.w3.org/2000/svg" viewBox="0 0 183.83 57"><defs><style>.cls-1{fill:#1d1d1b;}.cls-2{fill:#fff;}</style></defs><path d="M81.48,39.11a31.11,31.11,0,0,1-5.6-.5,13.72,13.72,0,0,1-3.69-1.23,6.44,6.44,0,0,1-2.06-1.73,5,5,0,0,1-1-1.85,6.61,6.61,0,0,1-.23-1.75v-.28h7a3.05,3.05,0,0,0,2.56,2.81,13.71,13.71,0,0,0,3.21.31h1.55a20.5,20.5,0,0,0,2.81-.17A6.56,6.56,0,0,0,88,34.25a2,2,0,0,0,.79-.68,1.61,1.61,0,0,0,.22-.76,1.37,1.37,0,0,0-.36-1A3.56,3.56,0,0,0,87,31.15a20.44,20.44,0,0,0-3.65-.34l-2.11,0-1.6-.06Q69.21,30.48,69.21,25v-.22A7,7,0,0,1,69.47,23a4.52,4.52,0,0,1,1-1.61,6.15,6.15,0,0,1,2-1.35,15.26,15.26,0,0,1,3.37-.93,30.41,30.41,0,0,1,5-.36h2a32,32,0,0,1,5.21.38,15.48,15.48,0,0,1,3.58,1,6.7,6.7,0,0,1,2.18,1.42A4.89,4.89,0,0,1,95,23.16a5.09,5.09,0,0,1,.31,1.78v.28h-7a1.81,1.81,0,0,0-.17-.54,2,2,0,0,0-.47-.6,2.56,2.56,0,0,0-1-.61,8.28,8.28,0,0,0-1.8-.42,15.82,15.82,0,0,0-2.47-.2h-1a16.82,16.82,0,0,0-3.49.29,3.35,3.35,0,0,0-1.58.59,1.12,1.12,0,0,0-.28.81,1.28,1.28,0,0,0,.31.82,3.19,3.19,0,0,0,1.45.6,14.74,14.74,0,0,0,3.22.27l1.58,0,2,0q6,.11,8.66,1.5a4.59,4.59,0,0,1,2.68,4.35v.36a7,7,0,0,1-.26,2,5.24,5.24,0,0,1-1.08,1.74,6.31,6.31,0,0,1-2.14,1.51,15.33,15.33,0,0,1-3.67,1,33.29,33.29,0,0,1-5.43.39Z" transform="translate(-1.04 -1.2)"/><path d="M98.66,19h22.67v4.47h-16V26.4h15.64v4.5H105.3v3.23h16.31v4.59h-23Z" transform="translate(-1.04 -1.2)"/><path d="M142.12,38.49h-8.24l-11-19.41h7.51l7.82,14.27,7.31-14.27h6.89Z" transform="translate(-1.04 -1.2)"/><path d="M177.62,38.72l-2-3.6H158.07l-1.92,3.6h-6.86L160.15,19h13.22l11.5,19.72Zm-8.53-15.16h-4.78l-3.82,7.11h12.63Z" transform="translate(-1.04 -1.2)"/><rect class="cls-1" width="57" height="57" rx="10.93"/><path class="cls-2" d="M29.63,14.34h.73a15.17,15.17,0,0,1,6.15,1.28,15.62,15.62,0,0,1,7.09,6.09A14.86,14.86,0,0,1,45,24.53a16,16,0,0,1,.44,10.08A14.24,14.24,0,0,1,42,40.8a3.1,3.1,0,0,1-.56.47.16.16,0,0,1,.07-.17,16.39,16.39,0,0,0,3.67-8.46,14.85,14.85,0,0,0-.22-4.75,14,14,0,0,0-1.22-3.78A15.14,15.14,0,0,0,37,17.34a14.17,14.17,0,0,0-8.48-1.27,12.45,12.45,0,0,0-2.69.73c-.3.12-.62.2-.92.34A12.83,12.83,0,0,0,21,19.76a14.49,14.49,0,0,0-1.42,1.51,14.59,14.59,0,0,0-2.32,4.91A12.52,12.52,0,0,0,17,30.94a12.26,12.26,0,0,0,1,3.61,13.1,13.1,0,0,0,4.9,5.7,14.65,14.65,0,0,0,2.67,1.3,11.27,11.27,0,0,1,4.6,3.08A3.8,3.8,0,0,1,31,46.09a1.43,1.43,0,0,1-.22,1.22,5.24,5.24,0,0,1-1.48,1.45,6.21,6.21,0,0,1-3.53,1.16,7.32,7.32,0,0,0-.93.09,4.61,4.61,0,0,1-2.38-.32,21.16,21.16,0,0,1-7.41-4.93,20.36,20.36,0,0,1-3.2-4.24,22.22,22.22,0,0,1-1.42-3,20.78,20.78,0,0,1-1.37-7.68,20.4,20.4,0,0,1,1.14-6.57,20.7,20.7,0,0,1,8.72-10.85,19.56,19.56,0,0,1,4-1.93,20.8,20.8,0,0,1,9.68-1,20.06,20.06,0,0,1,5.47,1.63,16.75,16.75,0,0,1,3.83,2.25,23.49,23.49,0,0,1,3.84,3.75,22.59,22.59,0,0,1,1.7,2.66c.32.59.62,1.18.91,1.78a16.62,16.62,0,0,1,1.16,3.77,20,20,0,0,1,.5,4.07,21.2,21.2,0,0,1-1.24,7.14,20.6,20.6,0,0,1-6.11,8.73,19.55,19.55,0,0,1-3.41,2.29,8.41,8.41,0,0,1-1.47.56c-.61.2-1.23.38-1.87.57a5.88,5.88,0,0,1-.75.19A20.06,20.06,0,0,0,47.83,37.74a18.8,18.8,0,0,0,1.56-10,19.61,19.61,0,0,0-10-15.24,19.62,19.62,0,0,1,9.23,11.8,19.15,19.15,0,0,1-1.69,14.88,19.29,19.29,0,0,1-10.31,9,16.48,16.48,0,0,1-4.85,1.08l0-.07.92-.17a22.54,22.54,0,0,0,3-.81,17.66,17.66,0,0,0,2.29-1,19.38,19.38,0,0,0,5.35-4A19.11,19.11,0,0,0,48.56,29a18.66,18.66,0,0,0-.68-4.13,19.33,19.33,0,0,0-1.12-3,18.75,18.75,0,0,0-7-7.83,18,18,0,0,0-8.89-2.73,17.43,17.43,0,0,0-5.38.57,20.27,20.27,0,0,0-3.29,1.21,16.47,16.47,0,0,0-2.33,1.36.2.2,0,0,0-.09.09c.39-.24.78-.49,1.18-.72a16.84,16.84,0,0,1,2.79-1.3,18.32,18.32,0,0,1,19.68,4.74,18,18,0,0,1,2.68,3.68,16.36,16.36,0,0,1,1.12,2.4,18.93,18.93,0,0,1-8,22.84,16.86,16.86,0,0,1-3,1.49,19,19,0,0,1-4.22,1,.56.56,0,0,1-.36,0l1.09-.2a20.8,20.8,0,0,0,2.57-.71,16.2,16.2,0,0,0,2.28-1,18.79,18.79,0,0,0,8.77-9.42,18.29,18.29,0,0,0,1-11,16.7,16.7,0,0,0-1.21-3.57,17.57,17.57,0,0,0-7.32-7.91,15.39,15.39,0,0,0-2.34-1.06l.86.39a17.46,17.46,0,0,1,8.14,7.54,15.59,15.59,0,0,1,1,2.15,17.83,17.83,0,0,1,.69,10.59,18.43,18.43,0,0,1-14.9,13.88c-.32.06-.61-.11-.92-.1-.05,0-.08,0-.09-.07h0c0-.05.06-.05.09-.05l1.18-.26a16.91,16.91,0,0,0,4.07-1.4A17.83,17.83,0,0,0,43.91,40,17.2,17.2,0,0,0,46.1,26.34a16.46,16.46,0,0,0-1.21-3.2,16,16,0,0,0-12.95-8.83,16.3,16.3,0,0,0-2.21,0h-.09Z" transform="translate(-1.04 -1.2)"/></svg>