<?xml version="1.0" encoding="UTF-8"?>
<svg id="artwork" xmlns="http://www.w3.org/2000/svg" viewBox="0 0 183.83 57">
  <defs>
    <style>
      .cls-1 {
        fill: #fff;
      }

      .cls-2 {
        fill: #1d1d1b;
      }
    </style>
  </defs>
  <path d="M80.44,37.91c-1.88,0-3.75-.16-5.6-.5-1.28-.23-2.52-.65-3.69-1.23-.8-.43-1.5-1.01-2.06-1.73-.46-.54-.8-1.17-1-1.85-.15-.57-.23-1.16-.23-1.75v-.28h7c.09,1.42,1.16,2.58,2.56,2.81,1.05,.23,2.13,.33,3.21,.31h1.55c.94,0,1.88-.05,2.81-.17,.68-.05,1.34-.21,1.97-.47,.32-.15,.59-.39,.79-.68,.14-.23,.21-.49,.22-.76,.02-.37-.11-.73-.36-1-.49-.36-1.05-.58-1.65-.66-1.2-.22-2.43-.34-3.65-.34h-2.11l-1.6-.06c-6.95-.18-10.43-2.1-10.43-5.75v-.22c0-.6,.1-1.2,.26-1.78,.22-.6,.56-1.15,1-1.61,.57-.58,1.25-1.04,2-1.35,1.08-.44,2.21-.75,3.37-.93,1.65-.26,3.33-.38,5-.36h2c1.74-.02,3.49,.11,5.21,.38,1.23,.19,2.43,.52,3.58,1,.81,.33,1.55,.81,2.18,1.42,.5,.45,.91,1,1.19,1.61,.21,.57,.31,1.17,.31,1.78v.28h-7c-.03-.19-.09-.37-.17-.54-.12-.23-.28-.43-.47-.6-.28-.28-.62-.49-1-.61-.58-.21-1.19-.35-1.8-.42-.82-.13-1.64-.2-2.47-.2h-1c-1.17-.03-2.34,.07-3.49,.29-.57,.06-1.11,.26-1.58,.59-.2,.22-.3,.51-.28,.81,0,.3,.11,.59,.31,.82,.43,.32,.92,.52,1.45,.6,1.06,.21,2.14,.3,3.22,.27h3.58c4,.07,6.89,.57,8.66,1.5,1.69,.77,2.75,2.49,2.68,4.35v.36c.01,.68-.08,1.35-.26,2-.24,.65-.61,1.24-1.08,1.74-.6,.65-1.33,1.16-2.14,1.51-1.18,.48-2.41,.82-3.67,1-1.8,.28-3.61,.41-5.43,.39l-1.89,.03Z"/>
  <path d="M97.62,17.8h22.67v4.47h-16v2.93h15.64v4.5h-15.67v3.23h16.31v4.59h-23l.05-19.72Z"/>
  <path d="M141.08,37.29h-8.24l-11-19.41h7.51l7.82,14.27,7.31-14.27h6.89l-10.29,19.41Z"/>
  <path d="M176.58,37.52l-2-3.6h-17.55l-1.92,3.6h-6.86l10.86-19.72h13.22l11.5,19.72h-7.25Zm-8.53-15.16h-4.78l-3.82,7.11h12.63l-4.03-7.11Z"/>
  <rect class="cls-2" width="57" height="57" rx="10.93" ry="10.93"/>
  <g>
    <path class="cls-1" d="M32.99,46.47c.28-.12,.71-.3,1.24-.53,1.5-.66,2.61-1.2,2.71-1.25,.94-.46,4.46-2.77,6.78-7.2,2.25-4.3,2.6-9.36,.95-13.93-.4-1.08-.9-2.12-1.51-3.1-2.94-4.79-8.16-7.71-13.78-7.69-.74,.01-1.48,.07-2.21,.19-.03,.01-.06,.02-.09,.02v.03c.23-.02,.48-.05,.72-.07,2.12-.2,4.26,.05,6.28,.73,3.05,1,5.72,2.9,7.66,5.47,.65,.84,1.21,1.75,1.67,2.7,1.51,3.22,2.01,6.58,1.36,10.08-.41,2.39-1.42,4.65-2.93,6.54-.15,.2-.32,.37-.52,.52-.03-.09,.02-.13,.05-.18,1.8-2.6,2.81-5.67,2.91-8.84,.04-1.61-.18-3.21-.65-4.75-.35-1.29-.87-2.53-1.57-3.68-1.14-1.83-2.55-3.43-4.37-4.62-.91-.63-1.89-1.16-2.92-1.57-2.75-1.06-5.76-1.23-8.62-.5-.91,.23-1.79,.56-2.63,.98-.29,.15-.6,.26-.89,.43-1.39,.8-2.68,1.73-3.69,3-.44,.54-.92,1.03-1.28,1.64-.94,1.58-1.58,3.33-1.88,5.15-.25,1.6-.2,3.23,.16,4.81,.26,1.24,.71,2.42,1.32,3.53,1.26,2.25,3.15,4.09,5.43,5.28,.15,.08,.32,.15,.66,.3,.39,.17,1.14,.51,1.93,.8,.21,.08,.38,.14,.52,.18,.52,.17,.86,.27,.99,.31,.35,.11,.85,.33,1.46,.85,.11,.11,.36,.35,.57,.64,.1,.14,.18,.29,.19,.3,.04,.07,.09,.17,.15,.29,0,0,.03,.06,.08,.18h0c.03,.07,.06,.15,.09,.24,.02,.05,.05,.15,.08,.28,.07,.26,.09,.48,.1,.6,.02,.17,.02,.33,.02,.45,0,.08,0,.21-.02,.36-.01,.13-.04,.28-.07,.45-.04,.2-.11,.43-.23,.7-.05,.11-.15,.34-.32,.6-.08,.12-.4,.59-.95,1.01,0,0-.71,.54-1.7,.76-1.48,.34-6.44-.2-11.02-4.07-.6-.51-2.12-1.85-3.59-3.96-.64-.92-1.21-1.88-1.7-2.88-1.17-2.38-1.87-4.96-2.08-7.6-.19-2.25,0-4.51,.54-6.7,1.16-4.68,3.9-8.81,7.75-11.7,1.19-.91,2.48-1.69,3.85-2.31,3.01-1.36,6.3-1.99,9.61-1.84,1.92,.11,3.82,.49,5.63,1.14,1.43,.45,2.78,1.1,4.04,1.91,1.51,1.01,2.95,2.09,4.19,3.42,.71,.79,1.36,1.63,1.95,2.52,.38,.55,.73,1.12,1.07,1.7,.65,1.16,1.16,2.4,1.51,3.68,.43,1.31,.72,2.66,.86,4.04,.23,2.44,.03,4.91-.59,7.29-.92,3.53-2.76,6.74-5.32,9.33-.98,.98-2.05,1.86-3.21,2.62-.45,.27-.93,.51-1.42,.69-.6,.26-1.2,.5-1.82,.75-.24,.09-.48,.18-.73,.25,5.68-2.44,9.62-6.54,11.64-12.4,1.15-3.28,1.37-6.82,.65-10.22-1.4-6.7-5.29-11.45-11.42-14.39,4.85,2.34,8.39,5.95,10.33,11.01,1.94,5.06,1.82,10.13-.33,15.1-1.94,4.48-5.15,7.78-9.52,9.95-1.5,.75-3.1,1.27-4.76,1.53l-.02-.07c.3-.08,.6-.16,.9-.25,1-.3,1.98-.66,2.93-1.09,.76-.34,1.5-.74,2.21-1.19,1.91-1.2,3.6-2.72,5-4.49,1.73-2.18,2.96-4.71,3.62-7.41,.59-2.38,.71-4.86,.36-7.28-.2-1.4-.55-2.77-1.06-4.09-.38-1.01-.85-2-1.4-2.93-1.85-3.1-4.54-5.61-7.77-7.22-2.83-1.44-5.99-2.11-9.16-1.93-1.82,.08-3.62,.44-5.33,1.07-1.1,.41-2.17,.92-3.19,1.52-.78,.47-1.52,1-2.22,1.58-.03,.03-.06,.06-.08,.1,.37-.27,.74-.56,1.12-.83,.84-.6,1.74-1.12,2.68-1.56,6.7-3.17,14.63-2,20.15,2.95,1.15,1.02,2.17,2.18,3.03,3.45,.5,.74,.95,1.51,1.34,2.31,3.97,8.29,1.48,18.24-5.92,23.68-.9,.68-1.87,1.27-2.89,1.77-1.31,.64-2.7,1.12-4.12,1.44-.12,.04-.24,.05-.36,.01,.36-.1,.72-.2,1.07-.31,.86-.26,1.7-.58,2.51-.94,.76-.34,1.49-.73,2.19-1.17,1.87-1.19,3.52-2.7,4.88-4.45,1.35-1.74,2.38-3.71,3.05-5.82,1.14-3.63,1.13-7.53-.03-11.16-.38-1.21-.89-2.38-1.53-3.47-1.86-3.21-4.68-5.76-8.06-7.28-.79-.35-1.6-.64-2.44-.85l.9,.31c3.61,1.25,6.71,3.64,8.84,6.82,.46,.66,.86,1.35,1.21,2.07,1.6,3.36,2.21,6.89,1.66,10.57-.32,2.18-.97,4.18-1.94,6.01-.37,.7-.76,1.32-1.15,1.89-1.37,1.95-2.78,3.19-3.33,3.65-2.95,2.45-6.67,3.43-6.67,3.43,0,0-1.57,.35-1.58,.28,0-.04,.45-.2,1.23-.45h0Z"/>
    <path class="cls-1" d="M16.62,14.71l1.79-3.44,9.89-1.6c-.09,.06-.19,.12-.28,.18-.25,.03-.51,.07-.79,.12-.24,.04-.47,.09-.68,.15"/>
    <path class="cls-1" d="M26.19,13.29c.81-.47,1.63-.95,2.44-1.43"/>
    <ellipse class="cls-1" cx="25.61" cy="45.03" rx="3.95" ry="3.96"/>
  </g>
</svg>