<?xml version="1.0" encoding="UTF-8"?>
<svg id="artwork" xmlns="http://www.w3.org/2000/svg" viewBox="0 0 183.83 57">
  <defs>
    <style>
      .cls-1 {
        fill: #fff;
      }

      .cls-2 {
        fill: #231f20;
      }
    </style>
  </defs>
  <path class="cls-1" d="M80.44,37.91c-1.88,0-3.75-.16-5.6-.5-1.28-.23-2.52-.65-3.69-1.23-.8-.43-1.5-1.01-2.06-1.73-.46-.54-.8-1.17-1-1.85-.15-.57-.23-1.16-.23-1.75v-.28h7c.09,1.42,1.16,2.58,2.56,2.81,1.05,.23,2.13,.33,3.21,.31h1.55c.94,0,1.88-.05,2.81-.17,.68-.05,1.34-.21,1.97-.47,.32-.15,.59-.39,.79-.68,.14-.23,.21-.49,.22-.76,.02-.37-.11-.73-.36-1-.49-.36-1.05-.58-1.65-.66-1.2-.22-2.43-.34-3.65-.34h-2.11l-1.6-.06c-6.95-.18-10.43-2.1-10.43-5.75v-.22c0-.6,.1-1.2,.26-1.78,.22-.6,.56-1.15,1-1.61,.57-.58,1.25-1.04,2-1.35,1.08-.44,2.21-.75,3.37-.93,1.65-.26,3.33-.38,5-.36h2c1.74-.02,3.49,.11,5.21,.38,1.23,.19,2.43,.52,3.58,1,.81,.33,1.55,.81,2.18,1.42,.5,.45,.91,1,1.19,1.61,.21,.57,.31,1.17,.31,1.78v.28h-7c-.03-.19-.09-.37-.17-.54-.12-.23-.28-.43-.47-.6-.28-.28-.62-.49-1-.61-.58-.21-1.19-.35-1.8-.42-.82-.13-1.64-.2-2.47-.2h-1c-1.17-.03-2.34,.07-3.49,.29-.57,.06-1.11,.26-1.58,.59-.2,.22-.3,.51-.28,.81,0,.3,.11,.59,.31,.82,.43,.32,.92,.52,1.45,.6,1.06,.21,2.14,.3,3.22,.27h3.58c4,.07,6.89,.57,8.66,1.5,1.69,.77,2.75,2.49,2.68,4.35v.36c.01,.68-.08,1.35-.26,2-.24,.65-.61,1.24-1.08,1.74-.6,.65-1.33,1.16-2.14,1.51-1.18,.48-2.41,.82-3.67,1-1.8,.28-3.61,.41-5.43,.39l-1.89,.03Z"/>
  <path class="cls-1" d="M97.62,17.8h22.67v4.47h-16v2.93h15.64v4.5h-15.67v3.23h16.31v4.59h-23l.05-19.72Z"/>
  <path class="cls-1" d="M141.08,37.29h-8.24l-11-19.41h7.51l7.82,14.27,7.31-14.27h6.89l-10.29,19.41Z"/>
  <path class="cls-1" d="M176.58,37.52l-2-3.6h-17.55l-1.92,3.6h-6.86l10.86-19.72h13.22l11.5,19.72h-7.25Zm-8.53-15.16h-4.78l-3.82,7.11h12.63l-4.03-7.11Z"/>
  <rect class="cls-1" width="57" height="57" rx="10.93" ry="10.93"/>
  <g>
    <path class="cls-2" d="M33.07,46.48c.28-.12,.71-.3,1.23-.53,1.49-.66,2.6-1.19,2.69-1.24,.93-.46,4.44-2.76,6.74-7.16,2.24-4.28,2.58-9.31,.95-13.86-.39-1.08-.9-2.11-1.5-3.09-2.93-4.77-8.12-7.67-13.71-7.65-.74,.01-1.47,.07-2.2,.18-.03,.01-.06,.02-.09,.02v.03c.23-.02,.48-.05,.72-.07,2.11-.2,4.24,.05,6.25,.72,3.03,.99,5.69,2.89,7.62,5.44,.65,.84,1.21,1.74,1.67,2.69,1.51,3.2,2,6.54,1.35,10.03-.41,2.38-1.41,4.62-2.92,6.51-.15,.19-.32,.37-.51,.52-.03-.09,.02-.13,.05-.18,1.79-2.59,2.79-5.64,2.89-8.79,.04-1.6-.18-3.2-.65-4.73-.35-1.29-.87-2.52-1.56-3.66-1.14-1.82-2.53-3.41-4.35-4.59-.91-.63-1.88-1.15-2.91-1.57-2.74-1.05-5.73-1.22-8.57-.5-.9,.23-1.78,.55-2.62,.97-.29,.15-.59,.26-.88,.43-1.38,.8-2.66,1.73-3.67,2.98-.43,.53-.92,1.03-1.27,1.63-.94,1.58-1.57,3.31-1.87,5.12-.25,1.59-.19,3.21,.16,4.78,.26,1.23,.7,2.41,1.32,3.51,1.25,2.24,3.13,4.07,5.4,5.25,.15,.08,.32,.15,.66,.3,.39,.17,1.14,.51,1.92,.8,.21,.08,.38,.14,.52,.18,.52,.17,.85,.27,.99,.31,.35,.11,.84,.33,1.46,.85,.11,.11,.36,.35,.56,.64,.1,.14,.18,.28,.19,.3,.04,.07,.09,.17,.15,.29,0,0,.03,.06,.08,.18h0c.03,.07,.06,.15,.09,.24,.02,.05,.05,.15,.08,.28,.07,.26,.09,.48,.1,.59,.02,.17,.02,.33,.02,.45,0,.08,0,.21-.02,.36-.01,.13-.04,.28-.07,.45-.04,.19-.11,.43-.22,.69-.05,.11-.15,.34-.32,.6-.08,.12-.39,.59-.94,1,0,0-.71,.53-1.69,.76-1.47,.34-6.41-.2-10.96-4.05-.59-.5-2.11-1.84-3.57-3.94-.64-.91-1.2-1.87-1.69-2.87-1.16-2.37-1.86-4.93-2.07-7.56-.19-2.24,0-4.49,.53-6.67,1.15-4.66,3.88-8.77,7.71-11.64,1.19-.91,2.47-1.68,3.83-2.29,3-1.36,6.27-1.98,9.56-1.83,1.91,.11,3.8,.49,5.6,1.13,1.42,.45,2.77,1.09,4.02,1.9,1.5,1,2.94,2.08,4.17,3.4,.71,.78,1.36,1.62,1.94,2.5,.38,.55,.73,1.12,1.07,1.69,.65,1.16,1.15,2.38,1.51,3.66,.42,1.31,.71,2.65,.86,4.02,.23,2.43,.03,4.89-.58,7.25-.92,3.51-2.75,6.71-5.3,9.28-.97,.98-2.04,1.85-3.19,2.61-.45,.27-.92,.5-1.41,.69-.59,.26-1.2,.5-1.81,.74-.24,.09-.48,.18-.73,.25,5.65-2.42,9.57-6.5,11.58-12.34,1.14-3.26,1.37-6.78,.64-10.17-1.4-6.67-5.27-11.39-11.36-14.32,4.82,2.32,8.35,5.92,10.27,10.95,1.93,5.04,1.81,10.07-.33,15.02-1.93,4.46-5.13,7.74-9.47,9.89-1.49,.75-3.09,1.26-4.73,1.52l-.02-.07c.3-.08,.6-.16,.89-.25,1-.29,1.97-.66,2.92-1.09,.76-.34,1.49-.73,2.2-1.18,1.9-1.19,3.59-2.7,4.97-4.47,1.72-2.17,2.95-4.68,3.6-7.38,.59-2.37,.71-4.83,.35-7.25-.2-1.39-.55-2.76-1.05-4.07-.38-1.01-.85-1.99-1.39-2.92-1.84-3.09-4.52-5.58-7.73-7.18-2.82-1.43-5.96-2.1-9.11-1.93-1.81,.08-3.6,.44-5.3,1.06-1.1,.41-2.16,.92-3.17,1.51-.78,.46-1.51,.99-2.21,1.58-.03,.03-.06,.06-.08,.1,.37-.27,.74-.56,1.11-.83,.84-.59,1.73-1.11,2.66-1.55,6.66-3.15,14.56-1.99,20.04,2.94,1.14,1.01,2.16,2.17,3.01,3.43,.5,.73,.94,1.5,1.33,2.3,3.95,8.25,1.47,18.15-5.89,23.55-.9,.68-1.86,1.27-2.87,1.76-1.31,.64-2.68,1.12-4.1,1.43-.12,.04-.24,.05-.36,.01,.36-.1,.71-.2,1.07-.31,.85-.26,1.69-.57,2.5-.94,.75-.34,1.48-.73,2.18-1.17,1.86-1.18,3.5-2.68,4.85-4.43,1.34-1.74,2.37-3.69,3.03-5.79,1.14-3.62,1.13-7.5-.03-11.1-.38-1.21-.89-2.37-1.52-3.46-1.85-3.2-4.65-5.73-8.02-7.24-.78-.35-1.59-.63-2.43-.84l.89,.31c3.59,1.24,6.68,3.62,8.79,6.79,.46,.66,.86,1.35,1.21,2.06,1.59,3.34,2.19,6.85,1.65,10.52-.32,2.17-.97,4.16-1.93,5.98-.37,.7-.75,1.32-1.14,1.88-1.36,1.94-2.76,3.17-3.32,3.63-2.94,2.43-6.63,3.41-6.64,3.41,0,0-1.56,.34-1.58,.27,0-.04,.45-.2,1.22-.45h0Z"/>
    <path class="cls-2" d="M16.79,14.89l1.78-3.43,9.84-1.59c-.09,.06-.19,.12-.28,.18-.25,.03-.51,.07-.78,.12-.24,.04-.46,.09-.68,.15"/>
    <path class="cls-2" d="M26.31,13.48c.81-.47,1.62-.95,2.43-1.42"/>
    <ellipse class="cls-2" cx="25.73" cy="45.05" rx="3.93" ry="3.94"/>
  </g>
</svg>